<svg xmlns="http://www.w3.org/2000/svg" width="1000" height="510" viewBox="0 0 1000 510">
<rect width="1000" height="510" fill="#14212e"/>
<g font-family="sans-serif" fill="#e1edf5"><text x="30" y="30" font-size="22">Bottle coverage: approach candidates and completed pilot motions</text>
<text x="30" y="55" font-size="14">Each grid square aggregates both arms and sampled headings. It does not certify full task reachability.</text>
<text x="70" y="95" font-size="18">Upright bottle starts</text>
<rect x="70" y="312" width="44" height="44" fill="#23796f"/>
<rect x="70" y="264" width="44" height="44" fill="#23796f"/>
<rect x="70" y="216" width="44" height="44" fill="#23796f"/>
<rect x="70" y="168" width="44" height="44" fill="#714d45"/>
<rect x="70" y="120" width="44" height="44" fill="#714d45"/>
<text x="70" y="385" font-size="12">-15</text>
<rect x="118" y="312" width="44" height="44" fill="#23796f"/>
<rect x="118" y="264" width="44" height="44" fill="#23796f"/>
<rect x="118" y="216" width="44" height="44" fill="#23796f"/>
<rect x="118" y="168" width="44" height="44" fill="#714d45"/>
<rect x="118" y="120" width="44" height="44" fill="#714d45"/>
<text x="118" y="385" font-size="12">-10</text>
<rect x="166" y="312" width="44" height="44" fill="#23796f"/>
<rect x="166" y="264" width="44" height="44" fill="#23796f"/>
<rect x="166" y="216" width="44" height="44" fill="#23796f"/>
<rect x="166" y="168" width="44" height="44" fill="#714d45"/>
<rect x="166" y="120" width="44" height="44" fill="#714d45"/>
<text x="166" y="385" font-size="12">-5</text>
<rect x="214" y="312" width="44" height="44" fill="#23796f"/>
<rect x="214" y="264" width="44" height="44" fill="#23796f"/>
<rect x="214" y="216" width="44" height="44" fill="#23796f"/>
<rect x="214" y="168" width="44" height="44" fill="#23796f"/>
<rect x="214" y="120" width="44" height="44" fill="#23796f"/>
<text x="214" y="385" font-size="12">0</text>
<rect x="262" y="312" width="44" height="44" fill="#23796f"/>
<rect x="262" y="264" width="44" height="44" fill="#23796f"/>
<rect x="262" y="216" width="44" height="44" fill="#23796f"/>
<rect x="262" y="168" width="44" height="44" fill="#23796f"/>
<rect x="262" y="120" width="44" height="44" fill="#23796f"/>
<text x="262" y="385" font-size="12">5</text>
<rect x="310" y="312" width="44" height="44" fill="#23796f"/>
<rect x="310" y="264" width="44" height="44" fill="#23796f"/>
<rect x="310" y="216" width="44" height="44" fill="#23796f"/>
<rect x="310" y="168" width="44" height="44" fill="#23796f"/>
<rect x="310" y="120" width="44" height="44" fill="#23796f"/>
<text x="310" y="385" font-size="12">10</text>
<rect x="358" y="312" width="44" height="44" fill="#23796f"/>
<rect x="358" y="264" width="44" height="44" fill="#23796f"/>
<rect x="358" y="216" width="44" height="44" fill="#23796f"/>
<rect x="358" y="168" width="44" height="44" fill="#23796f"/>
<rect x="358" y="120" width="44" height="44" fill="#465665"/>
<text x="358" y="385" font-size="12">15</text>
<circle cx="260.0" cy="214.0" r="4" fill="#ffce71" stroke="#14212e" stroke-width="1"/>
<circle cx="264.79999999999995" cy="214.0" r="4" fill="#ffce71" stroke="#14212e" stroke-width="1"/>
<circle cx="255.2" cy="214.0" r="4" fill="#ffce71" stroke="#14212e" stroke-width="1"/>
<circle cx="269.6" cy="214.0" r="4" fill="#ffce71" stroke="#14212e" stroke-width="1"/>
<circle cx="250.39999999999998" cy="214.0" r="4" fill="#ffce71" stroke="#14212e" stroke-width="1"/>
<circle cx="274.4" cy="214.0" r="4" fill="#ffce71" stroke="#14212e" stroke-width="1"/>
<circle cx="245.6" cy="214.0" r="4" fill="#ffce71" stroke="#14212e" stroke-width="1"/>
<circle cx="260.0" cy="209.2" r="4" fill="#ffce71" stroke="#14212e" stroke-width="1"/>
<circle cx="260.0" cy="218.8" r="4" fill="#ffce71" stroke="#14212e" stroke-width="1"/>
<circle cx="264.79999999999995" cy="209.2" r="4" fill="#ffce71" stroke="#14212e" stroke-width="1"/>
<text x="38" y="148" font-size="12">0</text>
<text x="38" y="196" font-size="12">-5</text>
<text x="38" y="244" font-size="12">-10</text>
<text x="38" y="292" font-size="12">-15</text>
<text x="38" y="340" font-size="12">-20</text>
<text x="180" y="408" font-size="13">X (cm); Y labels at left (cm)</text>
<text x="560" y="95" font-size="18">Sideways bottle starts</text>
<rect x="560" y="312" width="44" height="44" fill="#23796f"/>
<rect x="560" y="264" width="44" height="44" fill="#465665"/>
<rect x="560" y="216" width="44" height="44" fill="#465665"/>
<rect x="560" y="168" width="44" height="44" fill="#714d45"/>
<rect x="560" y="120" width="44" height="44" fill="#714d45"/>
<text x="560" y="385" font-size="12">-15</text>
<rect x="608" y="312" width="44" height="44" fill="#23796f"/>
<rect x="608" y="264" width="44" height="44" fill="#23796f"/>
<rect x="608" y="216" width="44" height="44" fill="#465665"/>
<rect x="608" y="168" width="44" height="44" fill="#714d45"/>
<rect x="608" y="120" width="44" height="44" fill="#714d45"/>
<text x="608" y="385" font-size="12">-10</text>
<rect x="656" y="312" width="44" height="44" fill="#23796f"/>
<rect x="656" y="264" width="44" height="44" fill="#23796f"/>
<rect x="656" y="216" width="44" height="44" fill="#23796f"/>
<rect x="656" y="168" width="44" height="44" fill="#465665"/>
<rect x="656" y="120" width="44" height="44" fill="#465665"/>
<text x="656" y="385" font-size="12">-5</text>
<rect x="704" y="312" width="44" height="44" fill="#23796f"/>
<rect x="704" y="264" width="44" height="44" fill="#23796f"/>
<rect x="704" y="216" width="44" height="44" fill="#23796f"/>
<rect x="704" y="168" width="44" height="44" fill="#23796f"/>
<rect x="704" y="120" width="44" height="44" fill="#465665"/>
<text x="704" y="385" font-size="12">0</text>
<rect x="752" y="312" width="44" height="44" fill="#23796f"/>
<rect x="752" y="264" width="44" height="44" fill="#23796f"/>
<rect x="752" y="216" width="44" height="44" fill="#23796f"/>
<rect x="752" y="168" width="44" height="44" fill="#23796f"/>
<rect x="752" y="120" width="44" height="44" fill="#465665"/>
<text x="752" y="385" font-size="12">5</text>
<rect x="800" y="312" width="44" height="44" fill="#23796f"/>
<rect x="800" y="264" width="44" height="44" fill="#23796f"/>
<rect x="800" y="216" width="44" height="44" fill="#23796f"/>
<rect x="800" y="168" width="44" height="44" fill="#465665"/>
<rect x="800" y="120" width="44" height="44" fill="#23796f"/>
<text x="800" y="385" font-size="12">10</text>
<rect x="848" y="312" width="44" height="44" fill="#23796f"/>
<rect x="848" y="264" width="44" height="44" fill="#23796f"/>
<rect x="848" y="216" width="44" height="44" fill="#23796f"/>
<rect x="848" y="168" width="44" height="44" fill="#23796f"/>
<rect x="848" y="120" width="44" height="44" fill="#23796f"/>
<text x="848" y="385" font-size="12">15</text>
<circle cx="630.0" cy="286.0" r="4" fill="#ffce71" stroke="#14212e" stroke-width="1"/>
<circle cx="678.0" cy="286.0" r="4" fill="#ffce71" stroke="#14212e" stroke-width="1"/>
<circle cx="726.0" cy="286.0" r="4" fill="#ffce71" stroke="#14212e" stroke-width="1"/>
<circle cx="634.8" cy="286.0" r="4" fill="#ffce71" stroke="#14212e" stroke-width="1"/>
<circle cx="682.8" cy="286.0" r="4" fill="#ffce71" stroke="#14212e" stroke-width="1"/>
<circle cx="730.8" cy="286.0" r="4" fill="#ffce71" stroke="#14212e" stroke-width="1"/>
<circle cx="625.2" cy="286.0" r="4" fill="#ffce71" stroke="#14212e" stroke-width="1"/>
<circle cx="678.0" cy="310.0" r="4" fill="#ffce71" stroke="#14212e" stroke-width="1"/>
<circle cx="682.8" cy="310.0" r="4" fill="#ffce71" stroke="#14212e" stroke-width="1"/>
<circle cx="673.2" cy="310.0" r="4" fill="#ffce71" stroke="#14212e" stroke-width="1"/>
<text x="528" y="148" font-size="12">0</text>
<text x="528" y="196" font-size="12">-5</text>
<text x="528" y="244" font-size="12">-10</text>
<text x="528" y="292" font-size="12">-15</text>
<text x="528" y="340" font-size="12">-20</text>
<text x="670" y="408" font-size="13">X (cm); Y labels at left (cm)</text>
<text x="30" y="450" font-size="14">Teal: at least one approach candidate · Grey: unresolved/planned-path collision · Brown: all tested resets overlap</text>
<text x="30" y="477" font-size="14" fill="#ffce71">Gold dots: 20 completed physical pilot episodes (some points overlap). Three validation poses remain reserved.</text></g></svg>